<?xml version="1.0" encoding="UTF-8" standalone="no"?>
<!-- Uploaded to: SVG Repo, www.svgrepo.com, Generator: SVG Repo Mixer Tools -->

<svg
   height="800px"
   width="800px"
   version="1.1"
   id="Capa_1"
   viewBox="0 0 48.401 48.401"
   xml:space="preserve"
   sodipodi:docname="call-24.svg"
   inkscape:version="1.3.2 (091e20e, 2023-11-25, custom)"
   xmlns:inkscape="http://www.inkscape.org/namespaces/inkscape"
   xmlns:sodipodi="http://sodipodi.sourceforge.net/DTD/sodipodi-0.dtd"
   xmlns="http://www.w3.org/2000/svg"
   xmlns:svg="http://www.w3.org/2000/svg"><defs
   id="defs6" /><sodipodi:namedview
   id="namedview6"
   pagecolor="#ffffff"
   bordercolor="#666666"
   borderopacity="1.0"
   inkscape:showpageshadow="2"
   inkscape:pageopacity="0.0"
   inkscape:pagecheckerboard="0"
   inkscape:deskcolor="#d1d1d1"
   inkscape:zoom="2.23625"
   inkscape:cx="400"
   inkscape:cy="507.32253"
   inkscape:window-width="3840"
   inkscape:window-height="2066"
   inkscape:window-x="1339"
   inkscape:window-y="-11"
   inkscape:window-maximized="1"
   inkscape:current-layer="Capa_1" />
<g
   id="g6"
   style="fill:#ffa500;fill-opacity:1;stroke:#ffa500;stroke-opacity:1"
   transform="matrix(0.97323537,0,0,0.96626731,0.63418614,0.85692755)">
	<g
   id="g5"
   style="fill:#ffa500;fill-opacity:1;stroke:#ffa500;stroke-opacity:1">
		<path
   style="fill:#ffa500;fill-opacity:1;stroke:#ffa500;stroke-opacity:1"
   d="m 16.36,18.515 -3.17,3.17 c -0.586,0.588 -0.979,1.354 -0.979,2.208 v 1.422 c 0,0.553 0.448,1 1,1 h 4.838 c 0.552,0 1,-0.422 1,-0.942 0,-0.522 -0.448,-0.944 -1.001,-0.944 h -2.629 c -0.552,0 -1,-0.12 -1,-0.267 0,-0.149 0,-0.268 0,-0.268 0,-0.32 0.124,-0.623 0.338,-0.819 l 3.17,-3.169 c 0.587,-0.588 0.961,-1.354 0.961,-2.208 v -1.532 c 0,-1.548 -1.46,-2.813 -3.259,-2.813 -1.798,0 -3.258,1.264 -3.258,2.813 v 0.623 c 0,0.345 0.447,0.624 1,0.624 h 0.208 c 0.552,0 1,-0.279 1,-0.624 0,-0.344 0,-0.623 0,-0.623 0,-0.498 0.481,-0.926 1.05,-0.926 0.588,0 1.051,0.428 1.051,0.926 v 1.532 c 0,0.319 -0.124,0.604 -0.32,0.817 z"
   id="path1" />
		<path
   style="fill:#ffa500;fill-opacity:1;stroke:#ffa500;stroke-opacity:1"
   d="m 27.134,13.494 h -0.207 c -0.553,0 -1.231,0.384 -1.516,0.858 l -4.064,6.779 c -0.283,0.474 -0.514,1.281 -0.514,1.802 0,0.52 0.447,0.943 1,0.943 h 3.091 c 0.554,0 1,0.447 1,1 v 0.439 c 0,0.553 0.447,1 1,1 h 0.209 c 0.553,0 1,-0.446 1,-1 v -0.439 c 0,-0.553 0.158,-1 0.354,-1 0.198,0 0.356,-0.422 0.356,-0.943 0,-0.522 -0.158,-0.945 -0.355,-0.945 -0.195,0 -0.355,-0.447 -0.355,-1 v -6.494 c 0.001,-0.553 -0.445,-1 -0.999,-1 z m -1.209,7.494 c 0,0.553 -0.446,1 -1,0.999 h -0.688 c -0.552,0 -0.771,-0.385 -0.49,-0.86 l 1.669,-2.82 c 0.281,-0.474 0.51,-0.413 0.51,0.14 z"
   id="path2" />
		<path
   style="fill:#ffa500;fill-opacity:1;stroke:#ffa500;stroke-opacity:1"
   d="m 31.424,11.762 c -0.381,0 -0.689,0.447 -0.689,1 v 6.635 c 0,0.553 0.309,1 0.689,0.999 0.381,0 0.69,-0.447 0.69,-1 v -3.401 c 0,-0.324 0.312,-0.576 0.685,-0.576 0.371,0 0.684,0.252 0.684,0.576 v 3.401 c 0,0.553 0.309,1 0.689,1 0.379,0 0.688,-0.447 0.688,-1 v -3.401 c 0,-0.935 -0.923,-1.691 -2.062,-1.691 -0.123,0 -0.24,0.015 -0.352,0.04 -0.191,0.044 -0.333,-0.331 -0.333,-0.884 v -0.698 c 10e-4,-0.553 -0.309,-1 -0.689,-1 z"
   id="path3" />
		<path
   style="fill:#ffa500;fill-opacity:1;stroke:#ffa500;stroke-opacity:1"
   d="M 47.463,25.801 45.486,25.184 C 45.681,23.287 45.646,21.37 45.357,19.463 43.487,7.105 31.913,-1.427 19.553,0.444 7.197,2.315 -1.335,13.891 0.536,26.249 0.75,27.657 1.09,29.018 1.542,30.318 1.907,31.361 2.728,32.066 3.276,31.935 3.823,31.804 3.874,30.89 3.501,29.851 3.054,28.607 2.721,27.302 2.515,25.947 0.808,14.682 8.587,4.128 19.854,2.423 31.121,0.717 41.673,8.496 43.38,19.763 c 0.241,1.603 0.297,3.216 0.164,4.815 0,0 -0.826,-0.258 -1.846,-0.576 -1.021,-0.318 -1.648,0.299 -1.406,1.375 l 1.309,5.826 c 0.242,1.076 1.098,1.344 1.908,0.596 l 4.392,-4.047 c 0.812,-0.749 0.614,-1.622 -0.438,-1.951 z"
   id="path4" />
		<path
   style="fill:#ffa500;fill-opacity:1;stroke:#ffa500;stroke-opacity:1"
   d="M 46.551,41.784 C 46.605,41.498 46.578,41.195 46.449,40.903 45.583,38.947 42.841,34.217 36.118,32.569 33.036,31.811 28.433,30.908 24.01,30.908 l -0.453,0.003 c -6.573,0.098 -12.463,1.432 -12.65,1.477 -0.206,0.033 -5.076,0.869 -8.325,4.352 l 0.012,0.012 C 2.032,37.221 1.512,38.073 1.28,38.49 L 1.26,38.477 c -0.431,0.713 -0.754,1.413 -0.988,2.14 -0.094,0.293 -0.09,0.59 -0.014,0.867 -0.14,0.241 -0.228,0.517 -0.23,0.813 L 0,45.834 c -0.008,0.913 0.728,1.664 1.645,1.674 l 10.928,0.09 h 0.009 c 0.909,0 1.653,-0.738 1.661,-1.646 l 0.028,-3.538 c 0.002,-0.277 -0.071,-0.535 -0.19,-0.767 0.053,-0.076 0.116,-0.15 0.157,-0.228 0.152,-0.291 0.882,-1.258 3.875,-1.442 0.96,-0.06 2.111,-0.089 3.421,-0.089 3.779,0 7.694,0.25 7.733,0.253 l 0.122,0.001 c 0.407,0 2.446,0.072 2.576,1.493 0.015,0.163 0.057,0.314 0.109,0.46 -0.188,0.279 -0.297,0.615 -0.286,0.977 l 0.117,3.543 c 0.033,0.896 0.763,1.599 1.659,1.599 l 11.745,-0.386 c 0.912,-0.034 1.63,-0.802 1.6,-1.712 l -0.117,-3.539 c -0.01,-0.293 -0.1,-0.56 -0.241,-0.793 z M 12.244,45.595 2.002,45.511 2.024,42.655 12.266,42.739 Z m 17.161,-7.451 c -0.003,0 -0.007,0 -0.01,0 -0.039,-0.002 -4.016,-0.257 -7.862,-0.257 -1.351,0 -2.544,0.031 -3.544,0.093 -3.598,0.223 -4.99,1.489 -5.525,2.514 -0.016,0.03 -0.061,0.072 -0.016,0.072 L 2.43,40.557 c 0.149,-0.346 0.329,-0.69 0.54,-1.042 0.139,-0.197 0.84,-1.129 1.035,-1.367 l 0.042,-0.044 c 2.774,-2.975 7.145,-3.736 7.248,-3.756 0.059,-0.014 5.929,-1.344 12.292,-1.438 l 0.424,-0.003 c 4.224,0 8.656,0.872 11.632,1.604 5.107,1.253 7.564,4.511 8.606,6.442 l -10.327,0.229 c -0.369,-2.234 -2.633,-3.038 -4.517,-3.038 z m 4.487,8.058 -0.095,-2.856 11.007,-0.36 0.095,2.854 z"
   id="path5" />
	</g>
</g>
</svg>
