<?xml version="1.0" encoding="UTF-8" standalone="no"?>
<!-- Uploaded to: SVG Repo, www.svgrepo.com, Generator: SVG Repo Mixer Tools -->

<svg
   fill="#000000"
   version="1.1"
   id="Capa_1"
   width="800px"
   height="800px"
   viewBox="0 0 94 94"
   xml:space="preserve"
   sodipodi:docname="tripadvisor-1.svg"
   inkscape:version="1.3.2 (091e20e, 2023-11-25, custom)"
   xmlns:inkscape="http://www.inkscape.org/namespaces/inkscape"
   xmlns:sodipodi="http://sodipodi.sourceforge.net/DTD/sodipodi-0.dtd"
   xmlns="http://www.w3.org/2000/svg"
   xmlns:svg="http://www.w3.org/2000/svg"><defs
   id="defs7" /><sodipodi:namedview
   id="namedview7"
   pagecolor="#ffffff"
   bordercolor="#666666"
   borderopacity="1.0"
   inkscape:showpageshadow="2"
   inkscape:pageopacity="0.0"
   inkscape:pagecheckerboard="0"
   inkscape:deskcolor="#d1d1d1"
   inkscape:zoom="2.23625"
   inkscape:cx="400"
   inkscape:cy="328.45165"
   inkscape:window-width="3840"
   inkscape:window-height="2066"
   inkscape:window-x="1339"
   inkscape:window-y="-11"
   inkscape:window-maximized="1"
   inkscape:current-layer="Capa_1" />
<g
   id="g7"
   style="fill:#008b8b;fill-opacity:1">
	<g
   id="g6"
   style="fill:#008b8b;fill-opacity:1">
		<path
   d="M53.262,36.059c3.471-3.184,7.605-4.855,12.297-5.209c-5.566-2.475-11.438-3.525-17.48-3.643    c-6.865-0.135-13.546,0.877-19.926,3.553c4.771,0.291,8.96,1.953,12.5,5.174c3.531,3.213,5.603,7.221,6.354,11.936    C47.779,43.209,49.794,39.238,53.262,36.059z"
   id="path1"
   style="fill:#008b8b;fill-opacity:1" />
		<path
   d="M66.6,44.002c-3.519,0-6.382,2.832-6.396,6.322c-0.013,3.477,2.864,6.369,6.351,6.379    c3.489,0.012,6.357-2.857,6.355-6.352C72.908,46.85,70.076,44.002,66.6,44.002z M66.6,53.568c-1.805,0-3.254-1.424-3.25-3.189    c0.004-1.834,1.412-3.25,3.229-3.252c1.781,0,3.238,1.459,3.223,3.229C69.783,52.129,68.35,53.568,66.6,53.568z"
   id="path2"
   style="fill:#008b8b;fill-opacity:1" />
		<path
   d="M27.372,34.855c-8.443-0.074-15.805,6.975-15.657,15.95c0.137,8.372,7.037,15.467,15.832,15.393    c8.602-0.072,15.517-7.098,15.533-15.604C43.093,41.857,36.096,34.855,27.372,34.855z M27.626,60.068    c-5.659,0.258-10.224-4.252-10.212-9.729c0.011-5.549,4.582-9.793,9.752-9.699c5.369-0.006,9.727,4.33,9.711,9.695    C36.863,55.768,32.583,59.842,27.626,60.068z"
   id="path3"
   style="fill:#008b8b;fill-opacity:1" />
		<path
   d="M27.08,44.002c-3.432,0.008-6.307,2.902-6.298,6.346c0.009,3.484,2.88,6.348,6.374,6.357    c3.473,0.008,6.347-2.883,6.34-6.377C33.485,46.805,30.635,43.996,27.08,44.002z M27.158,53.602    c-1.84,0.002-3.263-1.42-3.261-3.271c0-1.817,1.419-3.229,3.252-3.229c1.808-0.002,3.259,1.438,3.267,3.241    C30.423,52.131,28.957,53.596,27.158,53.602z"
   id="path4"
   style="fill:#008b8b;fill-opacity:1" />
		<path
   d="M66.27,34.918C57.698,35.094,50.99,42,50.913,50.545c0,8.68,7.042,15.771,15.69,15.738    c8.684-0.031,15.693-6.922,15.688-15.699C82.285,41.539,74.949,34.74,66.27,34.918z M66.977,60.07    c-5.638,0.217-10.146-4.275-10.145-9.721c0.002-5.509,4.545-9.802,9.74-9.709c5.373-0.01,9.725,4.318,9.725,9.684    C76.297,55.713,72.02,59.877,66.977,60.07z"
   id="path5"
   style="fill:#008b8b;fill-opacity:1" />
		<path
   d="M89,0H5C2.238,0,0,2.238,0,5v84c0,2.762,2.238,5,5,5h84c2.762,0,5-2.238,5-5V5C94,2.238,91.762,0,89,0z M85.693,55.33    c-1.26,5.127-4.197,9.123-8.664,11.953c-3.19,2.025-6.717,2.988-10.481,3.008c-1.583,0.01-3.157-0.203-4.702-0.602    c-3.768-0.978-6.996-2.855-9.658-5.699c-0.353-0.371-0.682-0.762-1.056-1.186c-1.407,2.098-2.792,4.159-4.21,6.276    c-1.412-2.11-2.779-4.154-4.142-6.188c-0.093,0.049-0.12,0.056-0.139,0.072c-0.03,0.025-0.059,0.057-0.082,0.086    c-3.219,3.801-7.267,6.131-12.2,6.91c-2.744,0.436-5.461,0.279-8.125-0.455c-3.778-1.037-6.988-3.031-9.581-5.973    c-2.534-2.875-4.11-6.211-4.701-10.006c-0.678-3.543,0.147-6.955,0.354-7.785c0.597-2.408,1.636-4.619,3.063-6.654    c0.101-0.145,0.135-0.398,0.087-0.57c-0.582-2.137-1.584-4.078-2.76-5.939c-0.298-0.473-0.656-0.91-0.986-1.363    c0-0.053,0-0.105,0-0.16c0.067,0.01,0.131,0.021,0.197,0.021c3.953,0.002,7.904,0.004,11.859-0.004    c0.171,0,0.363-0.07,0.509-0.166c2.777-1.781,5.737-3.193,8.847-4.293c2.24-0.789,4.53-1.406,6.865-1.859    c2.261-0.438,4.533-0.746,6.829-0.896c5.6-0.432,10.073,0.16,13.051,0.576c2.193,0.311,4.344,0.861,6.468,1.516    c3.706,1.141,7.203,2.727,10.493,4.783c0.229,0.141,0.535,0.232,0.804,0.232c3.863,0.016,7.726,0.01,11.587,0.014    c0.311,0,0.62,0.031,0.932,0.049c0,0.076,0.012,0.107-0.002,0.125c-0.18,0.279-0.363,0.553-0.543,0.828    c-1.311,2.01-2.431,4.113-3.092,6.438c-0.072,0.25-0.089,0.459,0.082,0.703C86.035,44.063,87.131,49.484,85.693,55.33z"
   id="path6"
   style="fill:#008b8b;fill-opacity:1" />
	</g>
</g>
</svg>
